<?xml version="1.0" standalone="no"?>
<!DOCTYPE svg PUBLIC "-//W3C//DTD SVG 20010904//EN"
 "http://www.w3.org/TR/2001/REC-SVG-20010904/DTD/svg10.dtd">
<svg version="1.0" xmlns="http://www.w3.org/2000/svg"
 width="8000.000000pt" height="5000.000000pt" viewBox="0 0 8000.000000 5000.000000"
 preserveAspectRatio="xMidYMid meet">

<g transform="translate(0.000000,5000.000000) scale(0.100000,-0.100000)"
fill="#000000" stroke="none">
<path d="M29623 44038 c-30 -14 -56 -73 -48 -106 29 -116 194 -98 195 21 0 74
-77 119 -147 85z"/>
<path d="M44903 43900 c-54 -23 -74 -117 -36 -168 38 -51 122 -54 169 -7 33
33 34 112 1 150 -25 30 -94 43 -134 25z"/>
<path d="M46575 41010 c-55 -22 -84 -89 -61 -144 18 -42 51 -66 94 -66 67 0
111 42 112 105 0 49 -22 83 -66 101 -37 16 -50 16 -79 4z"/>
<path d="M49731 37990 c-685 -66 -1338 -368 -1895 -875 -67 -61 -168 -151
-226 -201 -323 -281 -476 -520 -635 -999 -298 -894 -510 -2590 -466 -3737 32
-826 144 -1414 352 -1848 66 -137 138 -262 149 -258 8 3 458 513 511 578 43
53 471 523 889 975 162 176 360 394 440 485 157 178 266 295 456 490 82 84
145 161 194 235 40 61 94 139 121 175 l48 65 -172 662 -172 662 -30 -25 c-70
-56 -245 -169 -328 -211 -115 -57 -295 -118 -417 -139 -112 -20 -326 -22 -420
-5 -413 76 -656 350 -731 826 -21 128 -16 434 10 600 48 319 138 604 259 823
l46 82 31 -87 c104 -289 288 -516 550 -680 72 -45 267 -137 355 -166 268 -91
577 -137 920 -137 l165 0 32 54 c42 70 137 157 210 192 51 25 69 29 155 29 91
0 99 -2 139 -30 138 -97 128 -358 -20 -526 l-39 -44 -76 -595 c-141 -1104
-176 -1497 -176 -1940 1 -474 66 -791 204 -984 54 -76 102 -116 188 -156 127
-59 253 -58 378 3 75 36 223 176 284 267 20 30 36 51 36 47 0 -17 -121 -245
-171 -322 -29 -44 -91 -119 -139 -166 -110 -110 -188 -150 -303 -157 -99 -6
-153 14 -225 82 -129 121 -209 346 -258 716 -22 169 -30 753 -15 1050 28 546
92 1161 187 1800 53 360 50 328 28 309 -10 -9 -38 -26 -61 -38 -24 -12 -43
-25 -43 -30 0 -5 -11 -80 -25 -168 -148 -953 -231 -2046 -197 -2593 45 -704
173 -1075 410 -1192 63 -31 72 -33 177 -33 131 0 192 19 298 91 184 126 322
345 545 865 177 413 249 543 354 646 66 65 114 82 243 90 157 9 271 -30 426
-147 86 -65 268 -254 349 -363 35 -48 65 -85 67 -83 7 6 -47 174 -77 241 -18
39 -50 122 -72 185 -89 253 -218 527 -441 935 -146 268 -283 540 -337 670 -96
233 -170 517 -204 790 -35 271 -39 381 -46 1150 -7 855 -7 848 -66 1053 -162
557 -577 904 -1194 997 -128 19 -402 27 -529 15z m584 -3280 c-8 -102 -31
-315 -51 -475 -74 -616 -84 -707 -104 -920 -59 -647 -42 -1059 55 -1350 87
-261 248 -377 504 -363 98 6 175 34 245 90 48 38 39 21 -42 -88 -150 -199
-298 -292 -427 -266 -82 17 -145 51 -205 112 -93 94 -158 246 -195 455 -25
142 -36 458 -25 729 18 419 36 607 162 1616 89 710 120 881 83 460z"/>
<path d="M31850 30425 c-440 -72 -779 -373 -882 -782 -31 -122 -31 -351 0
-465 50 -184 135 -332 266 -464 85 -86 231 -187 321 -224 l52 -21 -18 -87
c-52 -258 -74 -602 -50 -812 52 -459 231 -824 516 -1050 68 -54 203 -140 220
-140 14 0 40 93 27 98 -5 1 -43 25 -85 53 -87 57 -225 183 -286 262 -209 272
-314 646 -300 1072 l2 60 8 -72 c42 -361 202 -740 429 -1018 60 -73 217 -227
250 -245 22 -12 17 -24 90 244 l51 188 -40 82 c-53 105 -71 179 -71 291 0 160
30 205 136 205 101 0 276 -118 403 -273 l53 -65 97 -8 c191 -14 521 13 752 62
412 87 713 238 955 479 121 121 180 198 248 325 l44 83 30 -59 c77 -154 112
-321 148 -709 l7 -70 28 84 c175 515 85 1129 -236 1611 -284 427 -730 732
-1213 829 -230 47 -482 51 -694 13 l-97 -18 -56 82 c-153 225 -387 382 -665
445 -114 26 -327 33 -440 14z"/>
<path d="M61369 29555 c-274 -43 -686 -198 -1171 -441 -124 -62 -178 -84 -207
-84 -64 0 -203 -28 -295 -59 -296 -101 -516 -310 -676 -644 -163 -341 -240
-748 -240 -1283 0 -252 5 -320 26 -328 109 -42 656 -55 919 -22 77 9 169 22
203 28 l64 10 -6 32 c-19 102 -27 212 -32 471 -3 178 -2 284 4 275 5 -8 24
-80 42 -160 37 -168 109 -423 142 -507 22 -55 26 -59 73 -75 92 -32 233 -18
483 46 l92 24 5 -22 c139 -676 432 -1088 895 -1256 227 -83 661 -124 855 -81
155 35 291 94 365 158 25 22 71 53 102 71 l57 32 85 -126 c48 -69 86 -129 86
-134 0 -5 -11 -49 -25 -97 -48 -163 -67 -296 -72 -500 -10 -345 36 -570 173
-848 215 -438 615 -766 1239 -1015 362 -145 604 -295 805 -499 113 -114 176
-201 238 -327 234 -472 116 -1062 -361 -1814 -182 -286 -250 -475 -264 -731
-22 -402 170 -841 528 -1213 56 -58 105 -106 108 -106 4 0 15 32 24 71 57 238
210 511 403 717 300 322 694 513 1248 607 281 47 510 122 724 236 522 278 919
776 1105 1389 20 63 52 150 72 193 84 182 152 440 176 675 17 163 6 511 -20
684 -42 268 -133 577 -236 794 -52 110 -214 372 -303 489 -102 134 -257 275
-405 369 -86 54 -277 148 -407 199 -226 89 -478 158 -846 232 -379 77 -497
135 -966 478 -227 165 -333 237 -470 316 -242 139 -469 219 -728 257 -159 23
-485 15 -655 -15 -253 -45 -512 -123 -769 -233 -78 -32 -148 -62 -156 -64 -11
-4 -45 38 -113 139 l-99 144 21 124 c64 385 49 986 -40 1619 -35 250 -90 514
-141 670 -45 143 -205 414 -348 595 -234 295 -542 488 -860 540 -115 18 -332
18 -451 0z m-278 -3244 c142 -219 336 -391 564 -502 172 -83 560 -191 758
-212 111 -11 117 -13 72 -19 -78 -10 -281 -9 -380 2 -269 31 -473 103 -655
231 -151 107 -267 251 -365 454 -63 132 -87 190 -62 151 7 -10 37 -58 68 -105z
m3962 -390 c209 -43 412 -121 604 -232 137 -79 212 -129 453 -304 356 -260
539 -368 724 -429 43 -14 160 -42 260 -62 735 -144 1184 -330 1477 -612 146
-140 342 -420 444 -634 183 -386 284 -913 255 -1329 -10 -142 -24 -247 -35
-257 -3 -3 -5 60 -5 139 0 573 -192 1136 -547 1602 -216 283 -629 625 -943
779 -262 128 -388 158 -898 213 -190 21 -313 54 -447 120 -150 73 -258 159
-416 327 -275 292 -359 363 -551 463 -327 171 -764 231 -1223 170 -60 -8 -114
-15 -119 -15 -52 0 196 55 334 74 153 22 501 15 633 -13z"/>
<path d="M18048 29409 c-110 -13 -263 -54 -335 -89 -43 -21 -77 -48 -110 -87
-26 -31 -62 -62 -80 -70 -47 -19 -209 -16 -435 8 -133 14 -239 20 -343 17
-140 -3 -154 -5 -207 -31 -93 -46 -123 -98 -163 -290 -64 -309 -114 -378 -309
-434 -102 -30 -147 -59 -191 -126 -87 -131 -86 -321 2 -491 30 -57 65 -99 179
-211 235 -232 246 -280 129 -557 -88 -213 -74 -269 109 -412 153 -119 236
-232 236 -321 0 -21 -12 -74 -27 -116 -24 -68 -26 -80 -15 -116 33 -109 193
-226 367 -269 39 -9 71 -18 73 -19 1 -1 -50 -154 -113 -340 -64 -187 -114
-345 -113 -351 2 -7 129 -99 283 -205 340 -233 504 -350 695 -497 95 -73 147
-107 151 -99 3 6 68 236 145 510 76 273 142 497 146 497 4 0 29 -13 55 -28 74
-43 164 -80 250 -104 108 -30 364 -32 467 -4 492 133 831 630 897 1316 20 215
-2 572 -50 797 -10 46 -16 84 -14 86 1 2 33 -3 70 -11 89 -18 196 -12 248 16
22 11 55 36 74 55 47 50 51 101 16 206 -18 54 -25 91 -20 109 4 16 61 80 144
162 169 166 195 211 189 320 -3 61 -10 83 -56 171 -59 113 -63 140 -36 261 9
40 17 118 17 173 1 85 -2 106 -21 142 -55 105 -187 104 -460 -2 -72 -29 -125
-44 -139 -40 -12 3 -41 28 -65 57 -137 164 -188 198 -305 206 -89 6 -147 -5
-372 -70 -162 -47 -177 -49 -215 -38 -76 22 -175 82 -264 158 -48 41 -107 88
-132 104 -84 54 -210 74 -352 57z"/>
<path d="M52955 23091 c-47 -29 -150 -143 -290 -320 -301 -381 -475 -580 -681
-781 -439 -428 -919 -721 -1413 -865 -64 -18 -115 -37 -114 -42 1 -4 213 -462
471 -1018 l470 -1010 1015 -3 1014 -2 7 162 c4 90 10 178 13 196 l5 32 -98
-46 c-560 -263 -844 -360 -844 -287 0 27 156 171 307 285 168 126 273 198 488
334 l160 101 7 79 c13 154 57 1097 58 1259 1 83 -3 113 -25 175 -26 74 -76
317 -155 745 -113 610 -193 885 -285 981 -46 49 -65 53 -110 25z"/>
<path d="M31467 22596 c-62 -22 -114 -63 -141 -108 -14 -24 -104 -214 -201
-423 -97 -209 -193 -414 -212 -455 -19 -41 -104 -223 -188 -405 -84 -181 -178
-383 -209 -449 -31 -65 -56 -120 -56 -122 0 -2 -20 -45 -44 -96 -24 -51 -73
-156 -109 -233 -36 -77 -86 -185 -112 -240 -26 -55 -61 -131 -77 -170 -17 -38
-34 -74 -38 -80 -4 -5 -29 -57 -55 -115 -26 -58 -62 -136 -80 -175 -18 -38
-49 -106 -70 -150 -20 -44 -59 -128 -87 -187 l-51 -108 -1733 0 -1732 0 -203
-50 c-112 -27 -262 -62 -334 -78 l-130 -29 -12 -39 c-16 -55 -16 -112 3 -174
12 -42 29 -67 75 -112 l60 -58 -959 0 -958 0 -55 -27 c-106 -55 -144 -144
-137 -323 3 -80 8 -105 32 -153 29 -60 79 -103 145 -125 25 -9 809 -12 3127
-12 l3093 0 5 -32 c14 -84 28 -533 36 -1173 9 -659 15 -817 41 -1060 56 -532
204 -954 436 -1244 135 -170 329 -325 531 -425 50 -25 92 -51 92 -57 0 -6
-126 -728 -280 -1604 -154 -876 -280 -1598 -280 -1605 0 -17 -41 21 -451 415
-200 193 -771 737 -1269 1210 -1337 1270 -1446 1374 -1848 1769 l-223 219 40
136 c270 924 292 1629 67 2103 -85 179 -247 369 -406 475 -260 174 -512 252
-1100 342 -513 78 -684 86 -1855 85 -829 -1 -1128 -5 -2067 -30 l-248 -7 -102
-126 c-355 -439 -778 -900 -1260 -1376 -554 -547 -774 -730 -1143 -947 -584
-343 -1365 -629 -2161 -791 l-160 -33 9 -28 c5 -15 7 -29 4 -32 -7 -8 -146 45
-243 93 -326 160 -519 435 -618 883 -71 319 -85 516 -96 1320 -5 371 -14 783
-20 915 -47 1051 -164 1598 -518 2425 -122 285 -227 510 -254 543 -14 18 -49
45 -78 61 -114 62 -256 41 -340 -50 -58 -63 -74 -105 -74 -194 1 -74 2 -78
116 -330 317 -702 448 -1121 522 -1673 55 -407 73 -772 86 -1719 5 -381 14
-747 20 -813 44 -518 120 -840 270 -1142 84 -171 167 -289 290 -414 184 -187
425 -333 697 -423 46 -15 52 -21 48 -39 -3 -12 -331 -1658 -730 -3657 -398
-1999 -726 -3643 -729 -3652 -4 -16 7 -18 122 -18 l127 0 865 3611 c476 1986
867 3614 870 3618 3 4 55 2 115 -5 219 -26 535 -37 850 -31 712 14 1278 77
2035 226 140 28 257 46 260 42 3 -5 450 -1686 995 -3735 l989 -3726 128 0 c98
0 126 3 123 12 -9 26 -1715 7552 -1712 7555 2 1 67 8 146 15 240 20 436 -9
631 -95 87 -39 102 -42 180 -42 102 0 146 20 209 91 52 59 76 135 67 210 -3
29 -9 59 -12 67 -4 12 32 4 148 -29 719 -210 1386 -473 1946 -768 l174 -91 -6
-40 c-3 -22 -21 -148 -40 -280 -168 -1158 -297 -2862 -346 -4540 -5 -192 -12
-423 -14 -512 -4 -124 -2 -163 7 -163 7 0 36 7 64 14 52 14 53 14 48 -7 -22
-99 -37 -224 -42 -338 -5 -112 -3 -145 11 -187 41 -123 203 -217 502 -291 44
-11 206 -47 360 -80 153 -33 338 -77 409 -96 266 -73 425 -100 677 -115 412
-23 886 43 1319 184 191 62 248 102 234 165 -16 73 -113 129 -615 353 -429
191 -703 339 -929 501 -106 76 -353 276 -365 296 -3 5 29 17 72 28 l77 19 12
114 c98 903 256 1933 439 2855 42 209 79 385 82 391 5 8 45 -22 107 -79 783
-709 2003 -1616 3644 -2710 240 -159 437 -290 438 -291 1 -1 -70 -409 -157
-906 -88 -498 -160 -911 -160 -917 0 -10 32 -13 125 -13 69 0 125 2 125 4 0 5
350 1628 353 1638 1 4 58 -29 127 -74 381 -248 1128 -718 1140 -718 4 0 37 23
74 51 l67 51 42 -28 c146 -96 311 -229 577 -464 225 -200 312 -267 399 -308
90 -43 159 -47 235 -13 67 29 104 61 296 256 91 92 201 194 245 227 95 73 214
131 310 154 286 68 421 149 665 400 301 311 583 787 675 1141 47 180 28 263
-59 263 -75 0 -144 -28 -486 -195 -362 -176 -494 -236 -664 -297 -327 -117
-789 -201 -1251 -227 -77 -4 -141 -7 -141 -7 -1 1 3 24 9 51 9 45 7 55 -16
100 -83 166 -529 649 -1318 1429 l-446 441 367 1698 c202 934 369 1700 372
1702 2 2 58 -5 123 -16 297 -48 394 -54 925 -54 307 0 572 5 675 12 94 7 436
15 760 18 560 4 1044 17 1310 34 66 4 124 4 128 0 7 -6 1767 -7239 1767 -7261
0 -5 56 -8 125 -8 113 0 125 2 125 18 -1 9 -335 1655 -744 3657 -408 2002
-741 3642 -740 3644 2 2 63 12 136 23 180 26 347 64 443 101 150 57 225 167
212 309 -8 95 -26 115 -163 184 -142 71 -231 97 -409 119 -536 65 -977 42
-3210 -170 -525 -49 -823 -72 -1110 -86 l-250 -12 -137 36 c-281 75 -446 161
-577 303 -189 206 -309 548 -361 1029 -28 260 -23 779 12 1167 l11 127 -32 33
c-61 62 -77 196 -46 388 16 96 113 531 120 539 3 2 3693 5 8201 7 l8197 4 -7
-59 c-26 -226 -48 -606 -141 -2426 -58 -1127 -161 -3124 -229 -4437 l-123
-2386 -60 -124 c-97 -199 -217 -362 -403 -547 -204 -202 -363 -280 -930 -452
-362 -110 -456 -143 -523 -183 -112 -67 -56 -127 158 -170 262 -51 532 -71
1010 -71 568 0 649 12 992 148 104 41 217 84 253 95 95 29 243 50 417 60 135
8 158 12 207 36 59 29 94 64 129 130 19 36 22 56 22 161 -1 112 -3 127 -36
220 -20 55 -60 156 -88 224 -74 177 -101 289 -101 415 0 138 21 213 119 435
866 1948 1501 4049 1645 5451 9 85 19 171 21 190 3 19 9 310 14 645 9 606 15
706 56 1025 46 362 126 763 240 1215 46 182 89 347 95 368 l11 37 268 0 268 0
68 -267 c98 -390 203 -747 290 -998 121 -344 181 -532 251 -775 176 -608 364
-1453 511 -2292 26 -153 50 -278 53 -278 3 0 72 121 155 268 82 147 198 352
257 456 59 103 108 190 108 192 0 3 20 37 44 77 24 39 80 137 126 217 45 80
119 208 164 285 46 77 131 223 191 325 247 420 594 989 716 1172 31 47 56 88
54 90 -6 6 -33 410 -44 653 -9 201 -16 624 -12 803 l1 72 1978 0 1977 0 50 24
c56 25 107 78 130 133 16 39 22 287 7 311 -5 7 -62 25 -128 42 -157 38 -224
62 -278 99 l-45 31 -814 0 -815 0 -54 -25 -53 -25 -2091 0 c-2356 0 -2146 -7
-2234 79 -43 43 -87 134 -600 1239 l-553 1192 -32 0 c-18 0 -144 -9 -281 -19
-137 -11 -346 -26 -464 -33 -269 -16 -1124 -16 -1270 0 -57 6 -106 9 -108 8
-13 -14 -354 -1819 -417 -2211 -14 -88 -28 -170 -31 -182 l-4 -23 -1728 0
c-950 0 -3120 3 -4823 7 l-3096 6 28 41 c16 23 403 847 860 1831 909 1957 859
1840 825 1957 -40 139 -198 225 -338 184 -71 -20 -130 -64 -163 -119 -14 -25
-315 -667 -669 -1428 -353 -761 -664 -1429 -690 -1484 -26 -55 -86 -185 -135
-290 l-89 -190 -1193 -5 -1194 -5 -45 -22 c-52 -26 -86 -55 -118 -100 l-22
-31 32 -11 c79 -25 203 -53 338 -77 242 -42 388 -85 447 -130 60 -46 38 -80
-72 -109 -54 -14 -337 -16 -2713 -22 l-2653 -6 58 59 c41 42 67 80 88 129 16
39 51 114 77 168 26 53 48 99 48 101 0 2 23 53 51 113 28 59 59 126 69 148 10
22 37 81 60 130 23 50 55 117 70 150 15 33 45 98 67 145 331 703 1178 2533
1190 2570 19 58 10 148 -19 208 -60 119 -216 182 -341 138z m18803 -3876 c17
-80 33 -153 36 -162 5 -16 -4 -18 -90 -18 -53 0 -96 1 -96 3 0 3 96 292 105
316 3 8 7 12 10 10 2 -2 18 -70 35 -149z"/>
<path d="M62936 21872 c-276 -720 -989 -2021 -1746 -3187 -184 -283 -205 -311
-253 -334 -149 -72 -726 -143 -1355 -168 l-174 -6 7 -63 c9 -83 31 -165 47
-175 7 -5 27 -9 43 -9 17 0 107 -11 200 -25 690 -102 1339 -293 1688 -499 149
-87 229 -156 314 -269 98 -132 279 -311 363 -360 115 -67 168 -70 206 -11 28
41 7 112 -96 325 -183 382 -241 644 -227 1014 20 477 136 936 457 1795 193
517 379 1102 459 1440 53 226 129 646 118 656 -1 1 -24 -55 -51 -124z"/>
<path d="M64259 21391 c-62 -20 -137 -80 -164 -132 -34 -64 -346 -1166 -475
-1674 -161 -636 -220 -967 -255 -1417 -18 -237 -10 -481 26 -771 16 -137 113
-792 148 -1007 58 -351 87 -710 77 -955 -17 -472 -118 -770 -335 -999 -244
-256 -598 -388 -1221 -458 -183 -21 -1059 -17 -1320 5 -524 45 -836 91 -1500
222 -261 51 -495 96 -520 98 -25 3 -101 13 -170 23 -155 21 -497 25 -615 5
-243 -39 -526 -142 -597 -218 -103 -108 -94 -303 19 -403 94 -82 207 -91 353
-26 194 86 403 118 641 98 79 -7 145 -14 147 -16 4 -4 -295 -1331 -307 -1361
-6 -14 3 -39 31 -90 76 -136 236 -461 259 -524 20 -57 24 -62 31 -40 4 13 120
449 258 968 138 520 252 946 253 948 2 1 106 -18 231 -42 669 -133 1188 -197
1821 -226 272 -12 780 -7 962 10 55 6 134 13 175 16 l73 7 604 -2524 c333
-1387 624 -2602 647 -2698 23 -96 79 -330 124 -520 46 -190 144 -601 219 -915
l137 -570 128 -3 c118 -2 127 -1 122 15 -8 29 -1456 7293 -1456 7307 0 8 47
29 112 50 652 217 1051 655 1192 1307 48 218 59 351 60 659 0 383 -21 582
-143 1385 -110 720 -126 932 -101 1266 42 529 206 1231 606 2591 60 204 84
302 84 340 0 158 -107 269 -265 275 -38 1 -82 -1 -96 -6z"/>
<path d="M27245 20349 c-141 -33 -576 -200 -960 -369 -127 -56 -243 -106 -258
-112 -23 -8 -27 -15 -23 -32 3 -11 63 -162 133 -333 l128 -312 42 -7 c23 -3
244 -4 490 -1 341 4 475 9 563 21 228 33 317 68 345 138 32 81 18 262 -34 436
-11 34 -16 62 -13 62 4 0 144 -69 312 -154 425 -215 668 -322 789 -349 109
-25 119 0 32 84 -153 149 -764 555 -1277 849 -167 95 -181 99 -269 79z"/>
<path d="M37418 15295 c-104 -18 -190 -34 -193 -37 -11 -11 30 -411 71 -698
25 -172 80 -481 110 -612 18 -80 38 -98 107 -98 56 0 118 28 195 89 86 68 85
60 41 341 -78 493 -92 629 -93 847 l-1 203 -25 -2 c-14 -1 -109 -16 -212 -33z"/>
<path d="M53660 11992 c-59 -95 -231 -326 -343 -461 -195 -236 -393 -447 -861
-918 l-410 -412 33 -328 c44 -451 77 -857 91 -1113 14 -243 12 -269 -60 -650
-54 -286 -63 -363 -58 -503 3 -108 7 -129 32 -184 30 -65 96 -137 155 -167 18
-10 77 -33 133 -52 131 -46 274 -118 506 -256 437 -260 651 -334 992 -345 215
-7 451 19 486 54 91 91 -315 586 -903 1101 -165 144 -169 150 -207 299 -47
181 -47 288 3 573 156 900 346 2262 431 3075 16 160 32 309 35 333 2 23 4 42
2 42 -1 0 -27 -40 -57 -88z"/>
<path d="M42095 11642 c-19 -102 -29 -190 -32 -287 -8 -233 27 -345 146 -468
138 -144 373 -496 761 -1137 51 -85 95 -157 96 -159 5 -6 190 20 203 29 8 5
-56 152 -210 481 -239 513 -256 549 -241 534 26 -27 125 -171 176 -255 32 -52
118 -217 192 -366 143 -290 214 -408 263 -437 173 -101 800 144 1266 496 111
84 216 192 248 257 90 180 -35 272 -344 254 l-117 -7 -17 -36 c-80 -168 -300
-362 -487 -429 -102 -36 -239 -38 -315 -3 -70 31 -132 100 -184 202 -108 216
-345 524 -650 845 -270 284 -577 556 -699 619 l-27 14 -28 -147z"/>
<path d="M57186 7966 c-218 -963 -396 -1754 -396 -1758 0 -5 56 -8 123 -8
l124 0 16 58 c78 282 847 3191 846 3202 0 8 -71 69 -158 136 l-158 121 -397
-1751z"/>
<path d="M38594 9400 c-207 -237 -350 -463 -376 -590 -10 -52 -7 -70 52 -315
113 -476 161 -746 180 -1010 10 -150 50 -869 50 -914 0 -23 1 -23 68 -16 86 9
130 27 136 57 8 34 106 1511 106 1589 0 33 22 21 88 -46 71 -73 109 -146 143
-270 32 -115 32 -406 0 -715 -38 -377 -21 -537 64 -590 56 -35 576 -90 847
-90 432 0 675 90 797 294 45 76 53 148 21 189 -42 53 -124 81 -321 111 l-94
14 -120 -33 c-183 -51 -288 -69 -415 -69 -105 -1 -120 1 -170 26 -171 84 -268
316 -300 718 -21 262 -31 338 -55 436 -95 396 -309 826 -545 1099 -35 40 -38
50 -45 123 -4 43 -10 84 -15 92 -5 8 -35 -19 -96 -90z"/>
<path d="M60196 8838 c-3 -24 -8 -113 -11 -198 -20 -510 -101 -1013 -211
-1307 -182 -487 -444 -693 -886 -697 -122 -1 -128 -2 -155 -27 -15 -15 -80
-60 -143 -102 -113 -74 -230 -181 -230 -211 0 -47 77 -74 255 -86 345 -25
1258 76 1338 147 71 65 118 270 232 1018 98 640 144 855 222 1030 77 176 47
278 -108 368 -39 22 -267 107 -289 107 -5 0 -11 -19 -14 -42z"/>
<path d="M49955 7549 c-1108 -544 -1439 -678 -1762 -720 -76 -9 -116 -9 -241
6 l-151 16 -183 -102 c-434 -244 -548 -329 -548 -413 0 -86 152 -125 518 -133
262 -6 380 3 602 47 230 46 403 106 865 300 234 98 354 138 691 230 534 146
707 221 807 349 67 85 62 167 -21 334 -54 110 -89 202 -106 280 -4 15 -10 27
-14 27 -4 -1 -209 -100 -457 -221z"/>
</g>
</svg>
